<?xml version="1.0" encoding="UTF-8" standalone="no"?>
<svg
   xmlns:dc="http://purl.org/dc/elements/1.1/"
   xmlns:cc="http://creativecommons.org/ns#"
   xmlns:rdf="http://www.w3.org/1999/02/22-rdf-syntax-ns#"
   xmlns:svg="http://www.w3.org/2000/svg"
   xmlns="http://www.w3.org/2000/svg"
   xmlns:sodipodi="http://sodipodi.sourceforge.net/DTD/sodipodi-0.dtd"
   xmlns:inkscape="http://www.inkscape.org/namespaces/inkscape"
   inkscape:export-ydpi="576"
   inkscape:export-xdpi="576"
   inkscape:export-filename="D:\Projeck juli #1\export\filled line\png\21 - Skateboard.png"
   width="64pt"
   height="64pt"
   viewBox="0 0 22.577778 22.577778"
   version="1.1"
   id="svg831"
   inkscape:version="1.0 (4035a4fb49, 2020-05-01)"
   sodipodi:docname="22 - Helmet.svg">
  <defs
     id="defs825">
    <pattern
       id="EMFhbasepattern"
       patternUnits="userSpaceOnUse"
       width="6"
       height="6"
       x="0"
       y="0" />
    <pattern
       id="EMFhbasepattern-9"
       patternUnits="userSpaceOnUse"
       width="6"
       height="6"
       x="0"
       y="0" />
    <pattern
       id="EMFhbasepattern-0"
       patternUnits="userSpaceOnUse"
       width="6"
       height="6"
       x="0"
       y="0" />
    <pattern
       id="EMFhbasepattern-7"
       patternUnits="userSpaceOnUse"
       width="6"
       height="6"
       x="0"
       y="0" />
    <pattern
       id="EMFhbasepattern-2"
       patternUnits="userSpaceOnUse"
       width="6"
       height="6"
       x="0"
       y="0" />
    <pattern
       id="EMFhbasepattern-98"
       patternUnits="userSpaceOnUse"
       width="6"
       height="6"
       x="0"
       y="0" />
    <pattern
       id="EMFhbasepattern-6"
       patternUnits="userSpaceOnUse"
       width="6"
       height="6"
       x="0"
       y="0" />
    <pattern
       id="EMFhbasepattern-01"
       patternUnits="userSpaceOnUse"
       width="6"
       height="6"
       x="0"
       y="0" />
    <pattern
       id="EMFhbasepattern-07"
       patternUnits="userSpaceOnUse"
       width="6"
       height="6"
       x="0"
       y="0" />
    <pattern
       id="EMFhbasepattern-8"
       patternUnits="userSpaceOnUse"
       width="6"
       height="6"
       x="0"
       y="0" />
    <pattern
       id="EMFhbasepattern-4"
       patternUnits="userSpaceOnUse"
       width="6"
       height="6"
       x="0"
       y="0" />
    <pattern
       id="EMFhbasepattern-40"
       patternUnits="userSpaceOnUse"
       width="6"
       height="6"
       x="0"
       y="0" />
    <pattern
       id="EMFhbasepattern-08"
       patternUnits="userSpaceOnUse"
       width="6"
       height="6"
       x="0"
       y="0" />
    <pattern
       id="EMFhbasepattern-04"
       patternUnits="userSpaceOnUse"
       width="6"
       height="6"
       x="0"
       y="0" />
    <pattern
       id="EMFhbasepattern-014"
       patternUnits="userSpaceOnUse"
       width="6"
       height="6"
       x="0"
       y="0" />
    <pattern
       id="EMFhbasepattern-27"
       patternUnits="userSpaceOnUse"
       width="6"
       height="6"
       x="0"
       y="0" />
    <pattern
       id="EMFhbasepattern-09"
       patternUnits="userSpaceOnUse"
       width="6"
       height="6"
       x="0"
       y="0" />
    <pattern
       id="EMFhbasepattern-5"
       patternUnits="userSpaceOnUse"
       width="6"
       height="6"
       x="0"
       y="0" />
    <pattern
       id="EMFhbasepattern-018"
       patternUnits="userSpaceOnUse"
       width="6"
       height="6"
       x="0"
       y="0" />
  </defs>
  <sodipodi:namedview
     inkscape:lockguides="true"
     id="base"
     pagecolor="#ffffff"
     bordercolor="#666666"
     borderopacity="1.0"
     inkscape:pageopacity="0.0"
     inkscape:pageshadow="2"
     inkscape:zoom="6.2578125"
     inkscape:cx="42.666667"
     inkscape:cy="42.666667"
     inkscape:document-units="pt"
     inkscape:current-layer="layer1"
     showgrid="false"
     units="pt"
     inkscape:window-width="1366"
     inkscape:window-height="705"
     inkscape:window-x="-8"
     inkscape:window-y="-8"
     inkscape:window-maximized="1"
     inkscape:pagecheckerboard="true"
     inkscape:showpageshadow="false"
     inkscape:object-paths="true"
     inkscape:snap-intersection-paths="true"
     inkscape:snap-smooth-nodes="true"
     inkscape:snap-midpoints="true"
     showguides="true"
     inkscape:snap-bbox="true"
     inkscape:bbox-nodes="true"
     inkscape:snap-nodes="false"
     inkscape:snap-global="true"
     inkscape:document-rotation="0">
    <inkscape:grid
       type="xygrid"
       id="grid1378" />
    <sodipodi:guide
       position="0.97013831,21.607643"
       orientation="78.000048,0"
       id="guide1380"
       inkscape:locked="true" />
    <sodipodi:guide
       position="0.97013831,0.97013129"
       orientation="0,78.000005"
       id="guide1382"
       inkscape:locked="true" />
    <sodipodi:guide
       position="21.607639,0.97013129"
       orientation="-78.000048,0"
       id="guide1384"
       inkscape:locked="true" />
    <sodipodi:guide
       position="21.607639,21.607643"
       orientation="0,-78.000005"
       id="guide1386"
       inkscape:locked="true" />
  </sodipodi:namedview>
  <metadata
     id="metadata828">
    <rdf:RDF>
      <cc:Work
         rdf:about="">
        <dc:format>image/svg+xml</dc:format>
        <dc:type
           rdf:resource="http://purl.org/dc/dcmitype/StillImage" />
        <dc:title></dc:title>
      </cc:Work>
    </rdf:RDF>
  </metadata>
  <g
     inkscape:label="Icon"
     inkscape:groupmode="layer"
     id="layer1"
     transform="translate(0,-274.42223)">
    <g
       transform="matrix(1.2580088,0,0,1.2580088,39.010655,-77.248677)"
       style="display:inline;stroke-width:0.794907"
       id="g847">
      <g
         style="stroke-width:0.794907"
         id="g890">
        <path
           style="color:#000000;font-style:normal;font-variant:normal;font-weight:normal;font-stretch:normal;font-size:medium;line-height:normal;font-family:sans-serif;font-variant-ligatures:normal;font-variant-position:normal;font-variant-caps:normal;font-variant-numeric:normal;font-variant-alternates:normal;font-variant-east-asian:normal;font-feature-settings:normal;font-variation-settings:normal;text-indent:0;text-align:start;text-decoration:none;text-decoration-line:none;text-decoration-style:solid;text-decoration-color:#000000;letter-spacing:normal;word-spacing:normal;text-transform:none;writing-mode:lr-tb;direction:ltr;text-orientation:mixed;dominant-baseline:auto;baseline-shift:baseline;text-anchor:start;white-space:normal;shape-padding:0;shape-margin:0;inline-size:0;clip-rule:nonzero;display:inline;overflow:visible;visibility:visible;isolation:auto;mix-blend-mode:normal;color-interpolation:sRGB;color-interpolation-filters:linearRGB;solid-color:#000000;solid-opacity:1;vector-effect:none;fill:#5f8ea2;fill-opacity:1;fill-rule:nonzero;stroke:none;stroke-width:0.420639;stroke-linecap:round;stroke-linejoin:round;stroke-miterlimit:4;stroke-dasharray:none;stroke-dashoffset:0;stroke-opacity:1;color-rendering:auto;image-rendering:auto;shape-rendering:auto;text-rendering:auto;enable-background:accumulate;stop-color:#000000"
           d="m -30.201168,284.93357 c -0.05557,0.0932 -0.0486,0.21089 0.01758,0.29688 l 1.019532,1.32422 c 0.209657,1.70659 0.350715,3.42124 0.513671,5.15429 0.01367,0.13692 0.129996,0.24051 0.267579,0.23829 5.108686,-0.0724 9.273931,2.61295 12.826171,4.72656 0.103284,0.0611 0.234762,0.0451 0.320313,-0.0391 1.030383,-1.01907 1.652426,-3.06831 0.853516,-5.05079 l 0.01953,0.0996 v -5.82031 c 3e-5,-0.0111 -6.38e-4,-0.0222 -0.002,-0.0332 -0.245304,-1.96242 -1.612543,-3.70484 -3.421875,-4.48633 -0.0104,-0.14673 -0.018,-0.28385 -0.05664,-0.40039 -0.04976,-0.15006 -0.179008,-0.2952 -0.324219,-0.35547 -0.792999,-0.0897 -1.518682,-0.32382 -2.038019,-0.24352 -0.519337,0.0803 -0.711972,0.28382 -0.891627,0.50336 -1.963144,0.006 -3.7033,0.39928 -5.286131,1.07225 -1.639339,0.88591 -2.934032,1.53787 -3.817381,3.01366 z"
           id="path637"
           sodipodi:nodetypes="cccccccccccccccccc" />
        <path
           style="color:#000000;font-style:normal;font-variant:normal;font-weight:normal;font-stretch:normal;font-size:medium;line-height:normal;font-family:sans-serif;font-variant-ligatures:normal;font-variant-position:normal;font-variant-caps:normal;font-variant-numeric:normal;font-variant-alternates:normal;font-variant-east-asian:normal;font-feature-settings:normal;font-variation-settings:normal;text-indent:0;text-align:start;text-decoration:none;text-decoration-line:none;text-decoration-style:solid;text-decoration-color:#000000;letter-spacing:normal;word-spacing:normal;text-transform:none;writing-mode:lr-tb;direction:ltr;text-orientation:mixed;dominant-baseline:auto;baseline-shift:baseline;text-anchor:start;white-space:normal;shape-padding:0;shape-margin:0;inline-size:0;clip-rule:nonzero;display:inline;overflow:visible;visibility:visible;isolation:auto;mix-blend-mode:normal;color-interpolation:sRGB;color-interpolation-filters:linearRGB;solid-color:#000000;solid-opacity:1;vector-effect:none;fill:#c8dae5;fill-opacity:1;fill-rule:nonzero;stroke:none;stroke-width:0.420639;stroke-linecap:round;stroke-linejoin:round;stroke-miterlimit:4;stroke-dasharray:none;stroke-dashoffset:0;stroke-opacity:1;color-rendering:auto;image-rendering:auto;shape-rendering:auto;text-rendering:auto;enable-background:accumulate;stop-color:#000000"
           d="m -20.978516,285.59766 c -0.820112,0 -1.452704,0.26323 -1.857422,0.70898 -0.404717,0.44576 -0.568433,1.05316 -0.523437,1.69141 0.05318,0.75435 0.355289,1.23198 0.777344,1.54297 0.422054,0.31098 0.928984,0.48601 1.476562,0.7871 a 0.26460996,0.26460996 0 0 0 0.01563,0.008 c 2.575782,1.19683 4.257619,1.21419 6.953125,1.60937 a 0.26460996,0.26460996 0 0 0 0.302735,-0.26172 v -5.82031 a 0.26460996,0.26460996 0 0 0 -0.31836,-0.25976 c -2.691043,0.55215 -4.152189,0.44561 -6.78125,-0.002 a 0.26460996,0.26460996 0 0 0 -0.04492,-0.004 z"
           id="path613" />
        <path
           style="color:#000000;font-style:normal;font-variant:normal;font-weight:normal;font-stretch:normal;font-size:medium;line-height:normal;font-family:sans-serif;font-variant-ligatures:normal;font-variant-position:normal;font-variant-caps:normal;font-variant-numeric:normal;font-variant-alternates:normal;font-variant-east-asian:normal;font-feature-settings:normal;font-variation-settings:normal;text-indent:0;text-align:start;text-decoration:none;text-decoration-line:none;text-decoration-style:solid;text-decoration-color:#000000;letter-spacing:normal;word-spacing:normal;text-transform:none;writing-mode:lr-tb;direction:ltr;text-orientation:mixed;dominant-baseline:auto;baseline-shift:baseline;text-anchor:start;white-space:normal;shape-padding:0;shape-margin:0;inline-size:0;clip-rule:nonzero;display:inline;overflow:visible;visibility:visible;isolation:auto;mix-blend-mode:normal;color-interpolation:sRGB;color-interpolation-filters:linearRGB;solid-color:#000000;solid-opacity:1;vector-effect:none;fill:#5f8ea2;fill-opacity:1;fill-rule:nonzero;stroke:none;stroke-width:0.420639;stroke-linecap:round;stroke-linejoin:round;stroke-miterlimit:4;stroke-dasharray:none;stroke-dashoffset:0;stroke-opacity:1;color-rendering:auto;image-rendering:auto;shape-rendering:auto;text-rendering:auto;enable-background:accumulate;stop-color:#000000"
           d="m -28.617188,285.37695 -0.05859,-0.16797 a 0.26460996,0.26460996 0 0 0 0.05859,0.16797 z"
           id="path537" />
        <path
           style="color:#000000;font-style:normal;font-variant:normal;font-weight:normal;font-stretch:normal;font-size:medium;line-height:normal;font-family:sans-serif;font-variant-ligatures:normal;font-variant-position:normal;font-variant-caps:normal;font-variant-numeric:normal;font-variant-alternates:normal;font-variant-east-asian:normal;font-feature-settings:normal;font-variation-settings:normal;text-indent:0;text-align:start;text-decoration:none;text-decoration-line:none;text-decoration-style:solid;text-decoration-color:#000000;letter-spacing:normal;word-spacing:normal;text-transform:none;writing-mode:lr-tb;direction:ltr;text-orientation:mixed;dominant-baseline:auto;baseline-shift:baseline;text-anchor:start;white-space:normal;shape-padding:0;shape-margin:0;inline-size:0;clip-rule:nonzero;display:inline;overflow:visible;visibility:visible;isolation:auto;mix-blend-mode:normal;color-interpolation:sRGB;color-interpolation-filters:linearRGB;solid-color:#000000;solid-opacity:1;vector-effect:none;fill:#5f8ea2;fill-opacity:1;fill-rule:nonzero;stroke:none;stroke-width:0.420639;stroke-linecap:round;stroke-linejoin:round;stroke-miterlimit:4;stroke-dasharray:none;stroke-dashoffset:0;stroke-opacity:1;color-rendering:auto;image-rendering:auto;shape-rendering:auto;text-rendering:auto;enable-background:accumulate;stop-color:#000000"
           d="m -28.541016,284.63281 c -0.223909,0.18288 -0.259026,0.52022 -0.07617,0.74414 l 1.673829,2.04883 c 0.182859,0.22395 0.520194,0.25904 0.74414,0.0762 l 0.410157,-0.33593 c 0.223909,-0.18288 0.257073,-0.52022 0.07422,-0.74414 l -1.671875,-2.04883 c -0.182859,-0.22395 -0.456987,-0.28332 -0.746095,-0.0762 z"
           id="path515"
           sodipodi:nodetypes="ccccccccc" />
        <path
           sodipodi:nodetypes="cccccccccccccccccccccccc"
           d="m -21.097423,281.37665 c 0.179655,-0.21954 0.372172,-0.42277 0.626835,-0.46457 0.321577,-0.0528 0.664558,9.2e-4 1.144117,0.0563 0.57918,0.0669 0.868164,0.0283 1.158585,0.14883 0.145211,0.0603 0.274251,0.20496 0.324012,0.35502 0.03864,0.11654 0.04644,0.25376 0.05684,0.40049 1.809332,0.78149 3.176192,2.52413 3.421496,4.48655 0.0014,0.011 0.0021,0.022 0.0021,0.0331 v -0.52916 c -7e-6,-0.0111 -7.09e-4,-0.0221 -0.0021,-0.0331 -0.245304,-1.96242 -1.612164,-3.70506 -3.421496,-4.48655 -0.0104,-0.14673 -0.0182,-0.28395 -0.05684,-0.40049 -0.04976,-0.15006 -0.178801,-0.29474 -0.324012,-0.35501 -0.290421,-0.12055 -0.579405,-0.0819 -1.158585,-0.14883 -0.359669,-0.0415 -0.642379,-0.082 -0.897103,-0.0775 l 2e-6,-1e-5 c -0.08491,0.002 -0.166619,0.008 -0.247014,0.0212 -0.254663,0.0418 -0.44718,0.24503 -0.626835,0.46457 -1.963144,0.006 -3.703556,0.39948 -5.286497,1.07255 -1.639449,0.88601 -2.933986,1.53773 -3.817335,3.01352 -0.05569,0.0933 -0.04872,0.21109 0.01757,0.29714 l 0.07131,0.0925 c 0.880416,-1.37674 2.142132,-2.01669 3.728453,-2.874 1.582941,-0.67307 3.323353,-1.06655 5.286497,-1.07255 z"
           style="color:#000000;font-style:normal;font-variant:normal;font-weight:normal;font-stretch:normal;font-size:medium;line-height:normal;font-family:sans-serif;font-variant-ligatures:normal;font-variant-position:normal;font-variant-caps:normal;font-variant-numeric:normal;font-variant-alternates:normal;font-variant-east-asian:normal;font-feature-settings:normal;font-variation-settings:normal;text-indent:0;text-align:start;text-decoration:none;text-decoration-line:none;text-decoration-style:solid;text-decoration-color:#000000;letter-spacing:normal;word-spacing:normal;text-transform:none;writing-mode:lr-tb;direction:ltr;text-orientation:mixed;dominant-baseline:auto;baseline-shift:baseline;text-anchor:start;white-space:normal;shape-padding:0;shape-margin:0;inline-size:0;clip-rule:nonzero;display:inline;overflow:visible;visibility:visible;isolation:auto;mix-blend-mode:normal;color-interpolation:sRGB;color-interpolation-filters:linearRGB;solid-color:#000000;solid-opacity:1;vector-effect:none;fill:#143441;fill-opacity:1;fill-rule:nonzero;stroke:none;stroke-width:0.420639;stroke-linecap:round;stroke-linejoin:round;stroke-miterlimit:4;stroke-dasharray:none;stroke-dashoffset:0;stroke-opacity:1;color-rendering:auto;image-rendering:auto;shape-rendering:auto;text-rendering:auto;enable-background:accumulate;stop-color:#000000"
           id="path867" />
        <path
           style="color:#000000;font-style:normal;font-variant:normal;font-weight:normal;font-stretch:normal;font-size:medium;line-height:normal;font-family:sans-serif;font-variant-ligatures:normal;font-variant-position:normal;font-variant-caps:normal;font-variant-numeric:normal;font-variant-alternates:normal;font-variant-east-asian:normal;font-feature-settings:normal;font-variation-settings:normal;text-indent:0;text-align:start;text-decoration:none;text-decoration-line:none;text-decoration-style:solid;text-decoration-color:#000000;letter-spacing:normal;word-spacing:normal;text-transform:none;writing-mode:lr-tb;direction:ltr;text-orientation:mixed;dominant-baseline:auto;baseline-shift:baseline;text-anchor:start;white-space:normal;shape-padding:0;shape-margin:0;inline-size:0;clip-rule:nonzero;display:inline;overflow:visible;visibility:visible;isolation:auto;mix-blend-mode:normal;color-interpolation:sRGB;color-interpolation-filters:linearRGB;solid-color:#000000;solid-opacity:1;vector-effect:none;fill:#5f8ea2;fill-opacity:1;fill-rule:nonzero;stroke:none;stroke-width:0.420639;stroke-linecap:round;stroke-linejoin:round;stroke-miterlimit:4;stroke-dasharray:none;stroke-dashoffset:0;stroke-opacity:1;color-rendering:auto;image-rendering:auto;shape-rendering:auto;text-rendering:auto;enable-background:accumulate;stop-color:#000000"
           d="m -21.242188,287.18555 c -0.435244,0 -0.794924,0.35772 -0.794921,0.79297 -3e-6,0.43524 0.359677,0.79492 0.794921,0.79492 0.435244,0 0.792972,-0.35968 0.792969,-0.79492 3e-6,-0.43525 -0.357725,-0.79297 -0.792969,-0.79297 z"
           id="path595" />
        <path
           id="path445"
           style="color:#000000;font-style:normal;font-variant:normal;font-weight:normal;font-stretch:normal;font-size:medium;line-height:normal;font-family:sans-serif;font-variant-ligatures:normal;font-variant-position:normal;font-variant-caps:normal;font-variant-numeric:normal;font-variant-alternates:normal;font-variant-east-asian:normal;font-feature-settings:normal;font-variation-settings:normal;text-indent:0;text-align:start;text-decoration:none;text-decoration-line:none;text-decoration-style:solid;text-decoration-color:#000000;letter-spacing:normal;word-spacing:normal;text-transform:none;writing-mode:lr-tb;direction:ltr;text-orientation:mixed;dominant-baseline:auto;baseline-shift:baseline;text-anchor:start;white-space:normal;shape-padding:0;shape-margin:0;inline-size:0;clip-rule:nonzero;display:inline;overflow:visible;visibility:visible;isolation:auto;mix-blend-mode:normal;color-interpolation:sRGB;color-interpolation-filters:linearRGB;solid-color:#000000;solid-opacity:1;vector-effect:none;fill:#a3b9c9;fill-opacity:1;fill-rule:nonzero;stroke:none;stroke-width:0.420639;stroke-linecap:round;stroke-linejoin:round;stroke-miterlimit:4;stroke-dasharray:none;stroke-dashoffset:0;stroke-opacity:1;color-rendering:auto;image-rendering:auto;shape-rendering:auto;text-rendering:auto;enable-background:accumulate;stop-color:#000000"
           d="m -22.835816,286.30656 c -0.06365,0.0701 -0.119198,0.14566 -0.171049,0.22324 0.385638,-0.25715 0.890258,-0.40307 1.521613,-0.40107 2.461006,0.22732 3.985912,0.39744 6.803979,0.004 0.164581,-0.0341 0.318854,0.0919 0.318327,0.25993 v 5.52215 c 0.08013,0.0114 0.144396,0.0185 0.226342,0.0305 0.159522,0.0233 0.302613,-0.10028 0.302824,-0.26149 v -5.82031 c 5.34e-4,-0.16808 -0.153742,-0.29406 -0.318326,-0.25994 -2.691043,0.55215 -4.152438,0.44555 -6.803979,-0.004 -0.842592,-0.002 -1.475013,0.26124 -1.879731,0.70699 z"
           sodipodi:nodetypes="sccccccccccs" />
        <path
           id="path474"
           style="color:#000000;font-style:normal;font-variant:normal;font-weight:normal;font-stretch:normal;font-size:medium;line-height:normal;font-family:sans-serif;font-variant-ligatures:normal;font-variant-position:normal;font-variant-caps:normal;font-variant-numeric:normal;font-variant-alternates:normal;font-variant-east-asian:normal;font-feature-settings:normal;font-variation-settings:normal;text-indent:0;text-align:start;text-decoration:none;text-decoration-line:none;text-decoration-style:solid;text-decoration-color:#000000;letter-spacing:normal;word-spacing:normal;text-transform:none;writing-mode:lr-tb;direction:ltr;text-orientation:mixed;dominant-baseline:auto;baseline-shift:baseline;text-anchor:start;white-space:normal;shape-padding:0;shape-margin:0;inline-size:0;clip-rule:nonzero;display:inline;overflow:visible;visibility:visible;isolation:auto;mix-blend-mode:normal;color-interpolation:sRGB;color-interpolation-filters:linearRGB;solid-color:#000000;solid-opacity:1;vector-effect:none;fill:#143441;fill-opacity:1;fill-rule:nonzero;stroke:none;stroke-width:0.420639;stroke-linecap:round;stroke-linejoin:round;stroke-miterlimit:4;stroke-dasharray:none;stroke-dashoffset:0;stroke-opacity:1;color-rendering:auto;image-rendering:auto;shape-rendering:auto;text-rendering:auto;enable-background:accumulate;stop-color:#000000"
           d="m -28.678565,291.40728 c -0.0088,0.48499 0.158203,0.54208 0.295806,0.5398 5.108686,-0.0724 9.273851,2.61323 12.826091,4.72684 0.103347,0.0611 0.234878,0.045 0.320394,-0.0393 0.748259,-0.74004 1.277899,-2.02378 1.207678,-3.43028 -0.06696,1.19467 -0.554435,2.25505 -1.207678,2.90112 -0.08552,0.0843 -0.217047,0.1004 -0.320394,0.0393 -3.55224,-2.11361 -7.717405,-4.79924 -12.826091,-4.72684 z"
           sodipodi:nodetypes="ccccccccc" />
        <path
           id="path482"
           style="color:#000000;font-style:normal;font-variant:normal;font-weight:normal;font-stretch:normal;font-size:medium;line-height:normal;font-family:sans-serif;font-variant-ligatures:normal;font-variant-position:normal;font-variant-caps:normal;font-variant-numeric:normal;font-variant-alternates:normal;font-variant-east-asian:normal;font-feature-settings:normal;font-variation-settings:normal;text-indent:0;text-align:start;text-decoration:none;text-decoration-line:none;text-decoration-style:solid;text-decoration-color:#000000;letter-spacing:normal;word-spacing:normal;text-transform:none;writing-mode:lr-tb;direction:ltr;text-orientation:mixed;dominant-baseline:auto;baseline-shift:baseline;text-anchor:start;white-space:normal;shape-padding:0;shape-margin:0;inline-size:0;clip-rule:nonzero;display:inline;overflow:visible;visibility:visible;isolation:auto;mix-blend-mode:normal;color-interpolation:sRGB;color-interpolation-filters:linearRGB;solid-color:#000000;solid-opacity:1;vector-effect:none;fill:#3a4d5c;fill-opacity:1;fill-rule:nonzero;stroke:none;stroke-width:0.420639;stroke-linecap:round;stroke-linejoin:round;stroke-miterlimit:4;stroke-dasharray:none;stroke-dashoffset:0;stroke-opacity:1;color-rendering:auto;image-rendering:auto;shape-rendering:auto;text-rendering:auto;enable-background:accumulate;stop-color:#000000"
           d="m -21.015772,287.2228 c 0.02198,0.0723 0.03721,0.14719 0.03721,0.22634 3e-6,0.43524 -0.357473,0.7953 -0.792717,0.7953 -0.07955,0 -0.155123,-0.0159 -0.227893,-0.0382 0.09967,0.32539 0.401345,0.56741 0.75706,0.56741 0.435244,0 0.792719,-0.36006 0.792717,-0.7953 2e-6,-0.35619 -0.240805,-0.65672 -0.566374,-0.75551 z" />
      </g>
      <path
         id="path1154"
         style="color:#000000;font-style:normal;font-variant:normal;font-weight:normal;font-stretch:normal;font-size:medium;line-height:normal;font-family:sans-serif;font-variant-ligatures:normal;font-variant-position:normal;font-variant-caps:normal;font-variant-numeric:normal;font-variant-alternates:normal;font-variant-east-asian:normal;font-feature-settings:normal;font-variation-settings:normal;text-indent:0;text-align:start;text-decoration:none;text-decoration-line:none;text-decoration-style:solid;text-decoration-color:#000000;letter-spacing:normal;word-spacing:normal;text-transform:none;writing-mode:lr-tb;direction:ltr;text-orientation:mixed;dominant-baseline:auto;baseline-shift:baseline;text-anchor:start;white-space:normal;shape-padding:0;shape-margin:0;inline-size:0;clip-rule:nonzero;display:inline;overflow:visible;visibility:visible;isolation:auto;mix-blend-mode:normal;color-interpolation:sRGB;color-interpolation-filters:linearRGB;solid-color:#000000;solid-opacity:1;vector-effect:none;fill:#000000;fill-opacity:1;fill-rule:nonzero;stroke:none;stroke-width:0.420639;stroke-linecap:round;stroke-linejoin:round;stroke-miterlimit:4;stroke-dasharray:none;stroke-dashoffset:0;stroke-opacity:1;color-rendering:auto;image-rendering:auto;shape-rendering:auto;text-rendering:auto;enable-background:accumulate;stop-color:#000000"
         d="m -26.38392,281.91978 c -1.63934,0.88591 -2.933988,1.53798 -3.817337,3.01377 -0.05557,0.0932 -0.04861,0.21114 0.01757,0.29714 l 1.019577,1.32395 c 0.209656,1.70659 0.350708,3.42116 0.513662,5.15421 0.01368,0.13692 0.130101,0.24045 0.267684,0.23823 5.108687,-0.0724 9.273851,2.61323 12.826091,4.72684 0.103275,0.0611 0.234833,0.0449 0.320394,-0.0393 0.970719,-0.96007 1.578018,-2.83416 0.977201,-4.70566 0.0438,0.006 0.07813,0.01 0.122473,0.0165 0.159725,0.0233 0.302924,-0.10059 0.302825,-0.262 v -5.82032 c 2e-4,-0.16787 -0.153953,-0.29349 -0.318327,-0.25942 -0.08524,0.0175 -0.159513,0.0288 -0.242363,0.045 -0.303814,-1.89585 -1.622057,-3.59678 -3.383256,-4.35064 -0.0088,-0.13783 -0.02385,-0.283 -0.09147,-0.42891 -0.07844,-0.16927 -0.270709,-0.32916 -0.498161,-0.34985 -0.627541,-0.0456 -1.290793,-0.1402 -1.905827,-0.16123 -0.355951,0.0189 -0.685457,0.19822 -0.897103,0.48679 -1.887055,0.0483 -3.601074,0.39458 -5.213635,1.07487 z m 9.896038,9.70742 c -0.01656,0.58047 -0.119058,1.06541 -0.262,1.418 -0.119778,0.29547 -0.273164,0.49594 -0.384989,0.59738 -3.336315,-1.86817 -6.903634,-3.34158 -11.118703,-3.34191 -0.09386,-0.9848 -0.190532,-1.9683 -0.299207,-2.95125 l 0.996323,1.29502 0.01757,0.0233 0.0021,0.002 c 0.21354,0.28125 0.63522,-0.0392 0.42168,-0.32039 l -0.0021,-0.002 c -0.795356,-1.13656 -1.675966,-2.17769 -2.513542,-3.26595 0.79406,-1.22698 1.905651,-1.83744 3.466455,-2.68046 0.432968,-0.18362 0.879618,-0.34324 1.338419,-0.48162 -0.530419,1.49152 -0.533178,3.23847 -0.275435,4.75991 0.143967,0.84982 0.368997,1.62788 0.640271,2.25775 0.271275,0.62987 0.574645,1.11339 0.951363,1.37511 0.119838,0.0824 0.283706,0.0526 0.366903,-0.0667 0.08249,-0.1197 0.05296,-0.28354 -0.06615,-0.3669 -0.218209,-0.1516 -0.515241,-0.56845 -0.765845,-1.15032 -0.250604,-0.58188 -0.467553,-1.32676 -0.605131,-2.13888 -0.267873,-1.58123 -0.226284,-3.41618 0.391191,-4.84415 0.92001,-0.22603 1.896685,-0.35522 2.944006,-0.36949 0.02633,0.49795 -0.133042,0.82589 -0.383956,1.13378 -0.291289,0.35743 -0.726942,0.66416 -1.121379,1.04697 -0.104214,0.10158 -0.106617,0.26778 -0.0057,0.37258 0.101789,0.10551 0.269619,0.10835 0.374654,0.006 0.351489,-0.34113 0.805777,-0.65457 1.162203,-1.09193 0.356427,-0.43736 0.593301,-1.0247 0.452169,-1.71669 0.113527,-0.13518 0.360849,-0.26161 0.618051,-0.23823 l 1.766817,0.17984 c 0.05517,0.0729 0.07615,0.18914 0.0832,0.32401 0.07954,1.52155 -0.473281,2.29821 -1.259872,2.94349 -0.112263,0.0925 -0.128935,0.25817 -0.03721,0.37104 0.09262,0.11352 0.25993,0.12975 0.373104,0.0367 0.770141,-0.63178 1.388733,-1.50021 1.451591,-2.86391 1.480686,0.7253 2.597918,2.23136 2.856157,3.86488 -2.223502,0.38173 -3.651757,0.25985 -6.041234,-0.14521 -0.842591,-0.002 -1.475012,0.26118 -1.87973,0.70694 -0.404716,0.44576 -0.568478,1.05312 -0.523482,1.69137 0.05318,0.75435 0.355159,1.23207 0.777214,1.54306 0.422054,0.31098 0.928818,0.48594 1.484406,0.79117 1.752927,0.8149 3.092323,1.08265 4.609797,1.29501 z m -11.644767,-7.3303 -0.408244,0.33589 c -0.223909,0.18288 -0.259339,0.52023 -0.07648,0.74414 l 1.673802,2.04898 c 0.182858,0.22395 0.520193,0.2588 0.744139,0.076 l 0.410311,-0.3359 c 0.223909,-0.18288 0.257267,-0.52022 0.07441,-0.74414 l -1.672251,-2.04901 c -0.270256,-0.23424 -0.443383,-0.2551 -0.745688,-0.076 z m 0.335897,0.41031 1.673798,2.04845 -0.41031,0.3359 -1.670701,-2.04639 z m 5.529376,4.408 c -0.327588,-0.24137 -0.517295,-0.50964 -0.562756,-1.15445 -0.03721,-0.52787 0.09349,-0.97758 0.384989,-1.29863 0.291153,-0.32068 0.755347,-0.53537 1.465544,-0.53537 2.500901,0.42367 4.109527,0.50619 6.616133,0.0295 h 1e-6 v 5.22293 c -2.512023,-0.35173 -4.110709,-0.41528 -6.499604,-1.5229 -0.583307,-0.31751 -1.080641,-0.50255 -1.404307,-0.74104 z m 4.234368,-2.06034 -1.058851,1.85157 c -0.07244,0.12726 -0.02774,0.28915 0.09974,0.36121 0.126717,0.0728 0.288444,0.0291 0.361218,-0.0977 l 1.05885,-1.85364 c 0.07244,-0.12726 0.02774,-0.28916 -0.172341,-0.37775 -0.162513,-0.0119 -0.243894,0.0381 -0.288612,0.11627 z m -3.209107,0.13074 c -0.435244,0 -0.794786,0.35747 -0.794783,0.79272 -3e-6,0.43524 0.359539,0.7953 0.794783,0.7953 0.435244,0 0.79272,-0.36006 0.792717,-0.7953 3e-6,-0.43525 -0.357473,-0.79272 -0.792717,-0.79272 z m 0,0.52917 c 0.14926,0 0.263551,0.11429 0.26355,0.26355 1e-6,0.14926 -0.11429,0.26561 -0.26355,0.26561 -0.149259,0 -0.265618,-0.11635 -0.265616,-0.26561 -2e-6,-0.14926 0.116357,-0.26355 0.265616,-0.26355 z m 4.013709,0.31264 -0.47284,0.82786 c -0.07313,0.12683 -0.02936,0.28894 0.09767,0.36173 0.12726,0.0724 0.289157,0.0277 0.361218,-0.0997 l 0.474906,-0.82838 c 0.07244,-0.12726 0.02774,-0.28915 -0.17234,-0.37775 -0.162514,-0.0119 -0.243895,0.0381 -0.288613,0.11627 z m 1.312581,0.0858 -1.05885,1.85157 c -0.07244,0.12726 -0.02774,0.28916 0.09974,0.36122 0.126656,0.0711 0.286968,0.0268 0.359152,-0.0992 l 1.05885,-1.85157 c 0.07314,-0.12683 0.02936,-0.28895 -0.159164,-0.3793 -0.159799,-0.0204 -0.251551,0.0316 -0.299723,0.1173 z m -12.287621,2.71715 c 5.031864,0.015 9.131287,2.19136 13.11341,4.63434 -0.130021,0.23683 -0.276469,0.44843 -0.433565,0.62529 -3.438297,-2.05327 -7.547917,-4.62671 -12.620936,-4.64261 -0.01918,-0.2061 -0.03956,-0.41121 -0.05891,-0.61702 z m 12.242662,0.87023 c 0.345359,0.0453 0.735502,0.099 1.111561,0.14934 0.06942,0.18083 0.126556,0.36185 0.169498,0.54209 l -0.720886,-0.17518 c -0.15619,0.006 -0.25017,0.0864 -0.276986,0.19688 -0.03517,0.14125 0.05015,0.28445 0.191203,0.3204 l 0.900204,0.22427 c 0.02643,0.26636 0.02755,0.52786 0.0067,0.78187 l -0.821138,-0.20051 c -0.155637,0.007 -0.249454,0.0868 -0.276986,0.19637 -0.03517,0.14125 0.05016,0.28445 0.191203,0.3204 l 0.833024,0.20877 c -0.05152,0.25187 -0.124062,0.49142 -0.211873,0.71624 -0.590449,-0.36183 -1.184577,-0.71937 -1.786454,-1.06505 0.15156,-0.17117 0.280258,-0.3974 0.391707,-0.67231 0.165076,-0.4072 0.275813,-0.93189 0.299206,-1.54358 z"
         sodipodi:nodetypes="cccccccccccccccscccccscccccccccccsscccssccscccscccscccccccscccccccccccccccccccccccccccccccscscssscssccccccccccccccccccccccccccccccccsccsc" />
    </g>
  </g>
</svg>
